<?xml version="1.0" encoding="iso-8859-1"?>
<!-- Generator: Adobe Illustrator 18.0.0, SVG Export Plug-In . SVG Version: 6.00 Build 0)  -->
<!DOCTYPE svg PUBLIC "-//W3C//DTD SVG 1.1//EN" "http://www.w3.org/Graphics/SVG/1.1/DTD/svg11.dtd">
<svg version="1.1" id="Capa_1" xmlns="http://www.w3.org/2000/svg" xmlns:xlink="http://www.w3.org/1999/xlink" x="0px" y="0px"
	 viewBox="0 0 57.996 57.996" style="enable-background:new 0 0 57.996 57.996;" xml:space="preserve">
<g>
	<path style="fill:#DD352E;" d="M17.775,17.594L4.667,30.702c-6.223,6.223-6.223,16.405,0,22.627h0
		c6.223,6.223,16.405,6.223,22.627,0l13.108-13.108L17.775,17.594z"/>
	<path style="fill:#EBBA16;" d="M40.422,40.202l12.908-12.907c6.222-6.223,6.222-16.405,0-22.627h0
		c-6.223-6.223-16.405-6.223-22.627,0L17.794,17.574L40.422,40.202z"/>
	<path style="fill:#F46767;" d="M22.046,21.826l-17.11,17.11c-0.586,0.585-0.586,1.536,0,2.121c0.293,0.293,0.677,0.439,1.061,0.439
		s0.768-0.146,1.061-0.439l17.11-17.11L22.046,21.826z"/>
	<path style="fill:#FCD770;" d="M24.165,23.948L40.057,8.057c0.586-0.585,0.586-1.536,0-2.121c-0.586-0.586-1.535-0.586-2.121,0
		L22.044,21.827L24.165,23.948z"/>
</g>
<g>
</g>
<g>
</g>
<g>
</g>
<g>
</g>
<g>
</g>
<g>
</g>
<g>
</g>
<g>
</g>
<g>
</g>
<g>
</g>
<g>
</g>
<g>
</g>
<g>
</g>
<g>
</g>
<g>
</g>
</svg>
